<svg role="img" viewBox="0 0 24 24" xmlns="http://www.w3.org/2000/svg">
  <title>BibTeX</title>
  <path d="M8.2 4.5H5.7c-1 0-1.7.8-1.7 1.8v3.1c0 1.1-.5 1.9-1.5 2.2v.8c1 .3 1.5 1.1 1.5 2.2v3.1c0 1 .7 1.8 1.7 1.8h2.5v-1.8H6.4c-.3 0-.5-.2-.5-.5v-2.9c0-1.2-.4-2-1.2-2.7.8-.6 1.2-1.5 1.2-2.7V6.8c0-.3.2-.5.5-.5h1.8Zm7.6 0v1.8h1.8c.3 0 .5.2.5.5v2.9c0 1.2.4 2.1 1.2 2.7-.8.7-1.2 1.5-1.2 2.7v2.9c0 .3-.2.5-.5.5h-1.8v1.8h2.5c1 0 1.7-.8 1.7-1.8v-3.1c0-1.1.5-1.9 1.5-2.2v-.8c-1-.3-1.5-1.1-1.5-2.2V6.3c0-1-.7-1.8-1.7-1.8Z" fill="#000"/>
  <path d="M9.3 7.1h6.5v1.7h-2.3v6.4h-1.9V8.8H9.3Zm0 8.7h6.5v1.7H9.3Z" fill="#000"/>
</svg>
