<?xml version="1.0" standalone="no"?><!DOCTYPE svg PUBLIC "-//W3C//DTD SVG 1.1//EN" "http://www.w3.org/Graphics/SVG/1.1/DTD/svg11.dtd"><svg t="1756348842140" class="icon" viewBox="0 0 1024 1024" version="1.1" xmlns="http://www.w3.org/2000/svg" p-id="5678" xmlns:xlink="http://www.w3.org/1999/xlink" width="200" height="200"><path d="M185.698462 516.647385c0 33.516308 5.12 65.654154 14.76923 96.019692a43.638154 43.638154 0 0 0-35.76123 13.548308c-10.515692 11.342769-15.163077 25.324308-13.154462 39.305846 0.945231 6.419692 3.150769 12.603077 6.537846 18.156307-7.049846 5.671385-12.209231 13.548308-14.729846 23.04-1.969231 7.483077-3.977846 22.961231 6.537846 38.912a42.692923 42.692923 0 0 0-3.032615 41.235693c8.467692 19.022769 29.499077 33.988923 70.340923 50.057846 25.403077 10.043077 48.600615 16.462769 48.836923 16.541538 33.555692 8.664615 63.960615 12.996923 90.269538 12.996923 43.086769 0 75.264-11.697231 95.862154-34.816a323.072 323.072 0 0 0 109.213539 0.196924c20.598154 22.961231 52.736 34.619077 95.704615 34.619076 26.308923 0 56.713846-4.332308 90.308923-12.996923 0.196923-0.078769 23.394462-6.498462 48.836923-16.541538 40.802462-16.068923 61.833846-31.035077 70.301539-50.057846a42.653538 42.653538 0 0 0-3.032616-41.235693c10.515692-15.950769 8.507077-31.468308 6.537846-38.872615a43.480615 43.480615 0 0 0-14.729846-23.079385c3.347692-5.513846 5.553231-11.500308 6.537846-18.156307 2.008615-13.981538-2.638769-27.963077-13.154461-39.305846a43.638154 43.638154 0 0 0-32.531692-13.745231l-1.772308 0.039384c9.609846-30.326154 14.729846-62.385231 14.729846-95.862153C829.124923 340.086154 685.095385 196.923077 507.431385 196.923077c-177.703385 0-321.732923 143.163077-321.732923 319.724308z m321.732923-288.374154c160.295385 0 290.304 129.142154 290.304 288.374154a286.326154 286.326154 0 0 1-8.192 68.01723l-0.354462-0.472615a43.244308 43.244308 0 0 0-33.673846-15.36c-10.712615 0-21.700923 3.505231-32.689231 10.436923-7.325538 4.608-15.399385 12.839385-23.748923 23.118769-7.68-10.633846-18.471385-17.723077-30.798769-19.692307-2.363077-0.354462-4.726154-0.512-7.128616-0.512-28.199385 0-45.095385 24.300308-51.515076 46.158769-3.150769 7.364923-18.432 40.96-41.393231 63.803077-35.524923 35.249231-43.953231 71.561846-25.521231 110.631384a281.993846 281.993846 0 0 1-71.916308-0.196923c17.959385-36.864 11.027692-74.161231-25.639384-110.434461-22.961231-22.843077-38.203077-56.438154-41.393231-63.803077-6.419692-21.858462-23.355077-46.158769-51.515077-46.158769-2.363077 0-4.726154 0.157538-7.089231 0.551384-12.366769 1.890462-23.158154 9.058462-30.838154 19.652923-8.349538-10.279385-16.423385-18.510769-23.709538-23.118769-11.027692-6.931692-22.055385-10.436923-32.728615-10.436923-12.996923 0-24.615385 5.198769-32.925539 14.572308a286.483692 286.483692 0 0 1-7.876923-66.756923c0-159.232 129.969231-288.374154 290.343385-288.374154z m-102.793847 151.473231a41.353846 41.353846 0 0 0-19.140923 77.942153c10.712615 5.671385 14.887385-15.990154 25.442462-19.692307 9.452308-3.347692 25.6 12.091077 30.680615 2.599384a41.314462 41.314462 0 0 0-36.982154-60.84923z m208.029539 0a41.353846 41.353846 0 0 0-36.942769 60.809846c5.080615 9.531077 21.188923-5.907692 30.64123-2.599385 10.594462 3.741538 14.808615 25.403077 25.481847 19.692308 20.243692-10.673231 27.844923-35.761231 17.092923-55.926154a41.511385 41.511385 0 0 0-36.233846-21.976615z m-296.684308 43.126153a26.663385 26.663385 0 1 0 0 53.32677 26.663385 26.663385 0 0 0 0-53.32677z m384.472616 0a26.702769 26.702769 0 1 0 0 53.444923 26.702769 26.702769 0 0 0 0-53.444923z m-291.288616 92.356923c-5.435077-0.078769-8.507077 3.387077-8.507077 12.642462 0 24.654769 11.815385 64.630154 43.441231 88.930462 6.301538-21.661538 40.920615-38.990769 45.843692-36.509539 7.049846 3.544615 6.695385 13.390769 18.51077 22.055385 11.815385-8.664615 11.342769-18.510769 18.392615-22.055385 4.923077-2.520615 39.542154 14.848 45.843692 36.509539 31.625846-24.300308 43.401846-64.275692 43.401846-88.930462 0-37.100308-48.128 19.495385-107.677538 19.731692-44.662154-0.196923-82.904615-32.098462-99.249231-32.374154z m-136.270769 91.766154c17.644308 11.106462 51.593846 69.198769 64.039385 91.766154a20.086154 20.086154 0 0 0 17.723077 10.752c12.721231 0 22.685538-12.603077 1.181538-28.553846-32.334769-24.024615-21.031385-63.409231-5.592615-65.811692a12.839385 12.839385 0 0 1 2.008615-0.118154q14.060308 0 20.243692 24.024615 18.116923 45.292308 49.309539 76.248616c28.672 28.435692 32.295385 51.790769 15.084307 81.053538-0.472615-0.118154-0.472615 0.748308-4.489846 6.537846a58.486154 58.486154 0 0 1-21.858461 18.707693c-15.399385 6.892308-34.658462 8.192-54.232616 8.192-31.507692 0-63.921231-5.513846-82.038153-10.200616-0.905846-0.236308-111.025231-29.105231-97.043693-55.414154 2.363077-4.411077 6.183385-6.183385 11.027693-6.183384 19.692308 0 55.453538 29.065846 70.813538 29.065846 3.426462 0 5.947077-2.638769 6.931692-6.183385 6.852923-24.497231-99.682462-32.019692-90.742154-65.811692 1.575385-5.986462 5.868308-8.388923 11.894154-8.388923 25.954462 0 84.243692 45.371077 96.452923 45.371077 0.905846 0 1.575385-0.236308 1.969231-0.787693 6.104615-9.846154 3.308308-17.880615-39.778461-43.795692-43.165538-25.993846-73.964308-40.408615-56.753231-59.076923 1.969231-2.126769 4.765538-3.072 8.192-3.072q26.190769 0 88.024615 55.926154 16.699077 17.329231 26.781539 17.329231c2.363077 0 4.332308-0.984615 5.671384-3.229539 7.128615-12.012308-66.481231-67.465846-70.656-90.348307-2.796308-15.517538 1.969231-23.315692 10.83077-23.315693 0 0.236308 5.159385-0.866462 15.005538 5.316923z m493.449846 17.99877c-4.174769 22.882462-77.784615 78.375385-70.656 90.348307a6.183385 6.183385 0 0 0 5.671385 3.229539q10.082462 0 26.781538-17.329231 61.833846-55.926154 88.024616-55.926154c3.426462 0 6.222769 0.945231 8.192 3.072 17.211077 18.668308-13.587692 33.083077-56.713847 59.076923-43.126154 25.915077-45.922462 33.949538-39.778461 43.756308 0.354462 0.590769 0.984615 0.827077 1.969231 0.827077 12.209231 0 70.459077-45.371077 96.413538-45.371077 6.025846 0 10.318769 2.363077 11.894154 8.388923 8.940308 33.792-97.595077 41.353846-90.742154 65.772308 0.984615 3.544615 3.505231 6.222769 6.931692 6.222769 15.36 0 51.160615-29.065846 70.813539-29.065846 4.844308 0 8.664615 1.772308 11.027692 6.183384 13.981538 26.308923-96.137846 55.177846-97.043692 55.414154-18.116923 4.686769-50.491077 10.24-82.038154 10.24-19.298462 0-38.360615-1.260308-53.641846-7.916308a58.604308 58.604308 0 0 1-22.449231-19.022769c-1.260308-2.048-3.111385-4.489846-4.332308-6.222769-17.408-29.420308-13.824-52.814769 14.92677-81.368615q31.153231-30.956308 49.270154-76.288 6.222769-23.985231 20.283076-23.985231c0.669538 0 1.339077 0 2.008616 0.118154 15.438769 2.402462 26.781538 41.747692-5.592616 65.811692-21.504 15.990154-11.539692 28.553846 1.181539 28.553846a20.086154 20.086154 0 0 0 17.723077-10.752c12.445538-22.567385 46.395077-80.659692 64.039384-91.766154 16.974769-10.712615 30.089846-5.513846 25.836308 17.99877z" p-id="5679" fill="#ffffff"></path></svg>