<?xml version="1.0" standalone="no"?><!DOCTYPE svg PUBLIC "-//W3C//DTD SVG 1.1//EN" "http://www.w3.org/Graphics/SVG/1.1/DTD/svg11.dtd"><svg t="1756348795575" class="icon" viewBox="0 0 1024 1024" version="1.1" xmlns="http://www.w3.org/2000/svg" p-id="3869" xmlns:xlink="http://www.w3.org/1999/xlink" width="200" height="200"><path d="M820.352 557.824v170.912h-170.88v-79.264h91.616v-91.648h79.264z m-537.44 0v91.648h91.648v79.264H203.648v-170.88H282.88z m274.88 0v91.648h-91.616v-91.648h91.648z m-183.232-262.56v79.264H282.88v91.648H203.648v91.616H112v-183.264h91.648V295.264h170.88z m274.88 170.88v91.648h-91.616v-91.616h91.616z m170.912-170.88v79.264H912v183.264h-91.648v-91.616H741.12v-91.648h-91.648V295.264h170.912z m-354.176 170.88v91.648h-91.616v-91.616h91.616z" fill="#ffffff" p-id="3870"></path></svg>